<mxfile host="app.diagrams.net" modified="2022-06-09T07:08:10.889Z" agent="5.0 (Windows NT 10.0; Win64; x64) AppleWebKit/537.36 (KHTML, like Gecko) Chrome/102.0.0.0 Safari/537.36" etag="33TydeSwngHCDpJyd9L4" version="19.0.2" type="github">
  <diagram id="OAc7gzNUV5Z1d8HfI-jg" name="Page-1">
    <mxGraphModel dx="1163" dy="1108" grid="1" gridSize="10" guides="1" tooltips="1" connect="1" arrows="1" fold="1" page="1" pageScale="1" pageWidth="827" pageHeight="1169" math="0" shadow="0">
      <root>
        <mxCell id="0" />
        <mxCell id="1" parent="0" />
        <mxCell id="4cVDEcXTtCitCNLEUzu5-38" value="" style="edgeStyle=orthogonalEdgeStyle;rounded=0;orthogonalLoop=1;jettySize=auto;html=1;fillColor=#dae8fc;strokeColor=#6c8ebf;" parent="1" source="4cVDEcXTtCitCNLEUzu5-36" target="4cVDEcXTtCitCNLEUzu5-37" edge="1">
          <mxGeometry relative="1" as="geometry" />
        </mxCell>
        <mxCell id="4cVDEcXTtCitCNLEUzu5-36" value="Object PageID Pass" style="rounded=0;whiteSpace=wrap;html=1;fillColor=#dae8fc;strokeColor=#6c8ebf;" parent="1" vertex="1">
          <mxGeometry x="240" y="40" width="120" height="60" as="geometry" />
        </mxCell>
        <mxCell id="4cVDEcXTtCitCNLEUzu5-40" value="" style="edgeStyle=orthogonalEdgeStyle;rounded=0;orthogonalLoop=1;jettySize=auto;html=1;fillColor=#dae8fc;strokeColor=#6c8ebf;" parent="1" source="4cVDEcXTtCitCNLEUzu5-37" target="4cVDEcXTtCitCNLEUzu5-39" edge="1">
          <mxGeometry relative="1" as="geometry" />
        </mxCell>
        <mxCell id="4cVDEcXTtCitCNLEUzu5-37" value="Render To PageRT" style="whiteSpace=wrap;html=1;rounded=0;fillColor=#dae8fc;strokeColor=#6c8ebf;" parent="1" vertex="1">
          <mxGeometry x="440" y="40" width="120" height="60" as="geometry" />
        </mxCell>
        <mxCell id="4cVDEcXTtCitCNLEUzu5-42" value="" style="edgeStyle=orthogonalEdgeStyle;rounded=0;orthogonalLoop=1;jettySize=auto;html=1;" parent="1" source="4cVDEcXTtCitCNLEUzu5-39" target="4cVDEcXTtCitCNLEUzu5-41" edge="1">
          <mxGeometry relative="1" as="geometry" />
        </mxCell>
        <mxCell id="4cVDEcXTtCitCNLEUzu5-39" value="PageRT&amp;nbsp;Feedback" style="whiteSpace=wrap;html=1;rounded=0;fillColor=#dae8fc;strokeColor=#6c8ebf;" parent="1" vertex="1">
          <mxGeometry x="640" y="40" width="120" height="60" as="geometry" />
        </mxCell>
        <mxCell id="4cVDEcXTtCitCNLEUzu5-44" value="" style="edgeStyle=orthogonalEdgeStyle;rounded=0;orthogonalLoop=1;jettySize=auto;html=1;" parent="1" source="4cVDEcXTtCitCNLEUzu5-41" target="4cVDEcXTtCitCNLEUzu5-43" edge="1">
          <mxGeometry relative="1" as="geometry" />
        </mxCell>
        <mxCell id="4cVDEcXTtCitCNLEUzu5-50" style="edgeStyle=orthogonalEdgeStyle;rounded=0;orthogonalLoop=1;jettySize=auto;html=1;entryX=0.5;entryY=0;entryDx=0;entryDy=0;" parent="1" source="4cVDEcXTtCitCNLEUzu5-41" target="4cVDEcXTtCitCNLEUzu5-45" edge="1">
          <mxGeometry relative="1" as="geometry" />
        </mxCell>
        <mxCell id="4cVDEcXTtCitCNLEUzu5-41" value="Feedback&lt;br&gt;Ready" style="rhombus;whiteSpace=wrap;html=1;rounded=0;" parent="1" vertex="1">
          <mxGeometry x="860" y="30" width="80" height="80" as="geometry" />
        </mxCell>
        <mxCell id="4cVDEcXTtCitCNLEUzu5-56" value="" style="edgeStyle=orthogonalEdgeStyle;rounded=0;orthogonalLoop=1;jettySize=auto;html=1;fillColor=#d5e8d4;strokeColor=#82b366;" parent="1" source="4cVDEcXTtCitCNLEUzu5-43" target="4cVDEcXTtCitCNLEUzu5-55" edge="1">
          <mxGeometry relative="1" as="geometry" />
        </mxCell>
        <mxCell id="4cVDEcXTtCitCNLEUzu5-43" value="Using PageRT&lt;br&gt;to Update Page Set" style="whiteSpace=wrap;html=1;rounded=0;fillColor=#d5e8d4;strokeColor=#82b366;" parent="1" vertex="1">
          <mxGeometry x="1030" y="40" width="120" height="60" as="geometry" />
        </mxCell>
        <mxCell id="02M5KZE2AxUHIFbQfSgq-3" style="edgeStyle=orthogonalEdgeStyle;rounded=0;orthogonalLoop=1;jettySize=auto;html=1;entryX=1;entryY=0.5;entryDx=0;entryDy=0;" parent="1" source="4cVDEcXTtCitCNLEUzu5-45" target="02M5KZE2AxUHIFbQfSgq-1" edge="1">
          <mxGeometry relative="1" as="geometry" />
        </mxCell>
        <mxCell id="4cVDEcXTtCitCNLEUzu5-45" value="Schedule PageRenderingJob" style="whiteSpace=wrap;html=1;rounded=0;fillColor=#d5e8d4;strokeColor=#82b366;" parent="1" vertex="1">
          <mxGeometry x="840" y="200" width="120" height="60" as="geometry" />
        </mxCell>
        <mxCell id="4cVDEcXTtCitCNLEUzu5-54" value="" style="edgeStyle=orthogonalEdgeStyle;rounded=0;orthogonalLoop=1;jettySize=auto;html=1;fillColor=#fff2cc;strokeColor=#d6b656;" parent="1" source="4cVDEcXTtCitCNLEUzu5-47" target="4cVDEcXTtCitCNLEUzu5-53" edge="1">
          <mxGeometry relative="1" as="geometry" />
        </mxCell>
        <mxCell id="4cVDEcXTtCitCNLEUzu5-47" value="Render to &lt;br&gt;Physical Texture" style="whiteSpace=wrap;html=1;rounded=0;fillColor=#fff2cc;strokeColor=#d6b656;" parent="1" vertex="1">
          <mxGeometry x="440" y="200" width="120" height="60" as="geometry" />
        </mxCell>
        <mxCell id="4cVDEcXTtCitCNLEUzu5-51" value="Y" style="text;html=1;align=center;verticalAlign=middle;resizable=0;points=[];autosize=1;strokeColor=none;fillColor=none;" parent="1" vertex="1">
          <mxGeometry x="970" y="50" width="20" height="20" as="geometry" />
        </mxCell>
        <mxCell id="4cVDEcXTtCitCNLEUzu5-52" value="N" style="text;html=1;align=center;verticalAlign=middle;resizable=0;points=[];autosize=1;strokeColor=none;fillColor=none;" parent="1" vertex="1">
          <mxGeometry x="910" y="140" width="20" height="20" as="geometry" />
        </mxCell>
        <mxCell id="4cVDEcXTtCitCNLEUzu5-65" value="" style="edgeStyle=orthogonalEdgeStyle;rounded=0;orthogonalLoop=1;jettySize=auto;html=1;" parent="1" source="4cVDEcXTtCitCNLEUzu5-53" target="4cVDEcXTtCitCNLEUzu5-64" edge="1">
          <mxGeometry relative="1" as="geometry" />
        </mxCell>
        <mxCell id="4cVDEcXTtCitCNLEUzu5-53" value="Setup Physical Texture Parameters" style="whiteSpace=wrap;html=1;rounded=0;fillColor=#fff2cc;strokeColor=#d6b656;" parent="1" vertex="1">
          <mxGeometry x="240" y="200" width="120" height="60" as="geometry" />
        </mxCell>
        <mxCell id="4cVDEcXTtCitCNLEUzu5-89" style="edgeStyle=orthogonalEdgeStyle;rounded=0;orthogonalLoop=1;jettySize=auto;html=1;" parent="1" source="4cVDEcXTtCitCNLEUzu5-55" target="4cVDEcXTtCitCNLEUzu5-58" edge="1">
          <mxGeometry relative="1" as="geometry" />
        </mxCell>
        <mxCell id="4cVDEcXTtCitCNLEUzu5-55" value="Adaptive/Clip" style="whiteSpace=wrap;html=1;rounded=0;fillColor=#d5e8d4;strokeColor=#82b366;" parent="1" vertex="1">
          <mxGeometry x="1230" y="40" width="120" height="60" as="geometry" />
        </mxCell>
        <mxCell id="4cVDEcXTtCitCNLEUzu5-62" value="" style="edgeStyle=orthogonalEdgeStyle;rounded=0;orthogonalLoop=1;jettySize=auto;html=1;fillColor=#d5e8d4;strokeColor=#82b366;" parent="1" source="4cVDEcXTtCitCNLEUzu5-58" target="4cVDEcXTtCitCNLEUzu5-61" edge="1">
          <mxGeometry relative="1" as="geometry" />
        </mxCell>
        <mxCell id="4cVDEcXTtCitCNLEUzu5-58" value="Get Physical Page Info" style="whiteSpace=wrap;html=1;rounded=0;fillColor=#d5e8d4;strokeColor=#82b366;" parent="1" vertex="1">
          <mxGeometry x="1230" y="200" width="120" height="60" as="geometry" />
        </mxCell>
        <mxCell id="4cVDEcXTtCitCNLEUzu5-63" style="edgeStyle=orthogonalEdgeStyle;rounded=0;orthogonalLoop=1;jettySize=auto;html=1;entryX=1;entryY=0.5;entryDx=0;entryDy=0;" parent="1" source="4cVDEcXTtCitCNLEUzu5-61" target="4cVDEcXTtCitCNLEUzu5-45" edge="1">
          <mxGeometry relative="1" as="geometry" />
        </mxCell>
        <mxCell id="4cVDEcXTtCitCNLEUzu5-61" value="Update PageTable" style="whiteSpace=wrap;html=1;rounded=0;fillColor=#d5e8d4;strokeColor=#82b366;" parent="1" vertex="1">
          <mxGeometry x="1030" y="200" width="120" height="60" as="geometry" />
        </mxCell>
        <mxCell id="4cVDEcXTtCitCNLEUzu5-64" value="&lt;span style=&quot;&quot;&gt;Sample VT in Shader&lt;/span&gt;" style="whiteSpace=wrap;html=1;fillColor=#f5f5f5;strokeColor=#666666;rounded=0;fontColor=#333333;" parent="1" vertex="1">
          <mxGeometry x="40" y="200" width="120" height="60" as="geometry" />
        </mxCell>
        <mxCell id="4cVDEcXTtCitCNLEUzu5-67" value="Virtual Texture Producer" style="swimlane;" parent="1" vertex="1">
          <mxGeometry x="330" y="440" width="200" height="160" as="geometry" />
        </mxCell>
        <mxCell id="4cVDEcXTtCitCNLEUzu5-69" value="PageIDProducer" style="whiteSpace=wrap;html=1;fillColor=#dae8fc;strokeColor=#6c8ebf;" parent="4cVDEcXTtCitCNLEUzu5-67" vertex="1">
          <mxGeometry y="30" width="200" height="30" as="geometry" />
        </mxCell>
        <mxCell id="4cVDEcXTtCitCNLEUzu5-70" value="PageTableProducer" style="whiteSpace=wrap;html=1;fillColor=#d5e8d4;strokeColor=#82b366;" parent="4cVDEcXTtCitCNLEUzu5-67" vertex="1">
          <mxGeometry y="60" width="200" height="30" as="geometry" />
        </mxCell>
        <mxCell id="4cVDEcXTtCitCNLEUzu5-72" value="PhysicalTextureProducer" style="whiteSpace=wrap;html=1;fillColor=#fff2cc;strokeColor=#d6b656;" parent="4cVDEcXTtCitCNLEUzu5-67" vertex="1">
          <mxGeometry y="120" width="200" height="30" as="geometry" />
        </mxCell>
        <mxCell id="02M5KZE2AxUHIFbQfSgq-7" value="PhysicalMaterialCollector" style="whiteSpace=wrap;html=1;fillColor=#e1d5e7;strokeColor=#9673a6;" parent="4cVDEcXTtCitCNLEUzu5-67" vertex="1">
          <mxGeometry y="90" width="200" height="30" as="geometry" />
        </mxCell>
        <mxCell id="02M5KZE2AxUHIFbQfSgq-4" style="edgeStyle=orthogonalEdgeStyle;rounded=0;orthogonalLoop=1;jettySize=auto;html=1;entryX=1;entryY=0.5;entryDx=0;entryDy=0;" parent="1" source="02M5KZE2AxUHIFbQfSgq-1" target="4cVDEcXTtCitCNLEUzu5-47" edge="1">
          <mxGeometry relative="1" as="geometry" />
        </mxCell>
        <mxCell id="02M5KZE2AxUHIFbQfSgq-1" value="Collect Physical Material for Pages" style="whiteSpace=wrap;html=1;fillColor=#e1d5e7;strokeColor=#9673a6;rounded=0;" parent="1" vertex="1">
          <mxGeometry x="640" y="200" width="120" height="60" as="geometry" />
        </mxCell>
        <mxCell id="02M5KZE2AxUHIFbQfSgq-9" value="PageIDProducer" style="swimlane;fillColor=#dae8fc;strokeColor=#6c8ebf;" parent="1" vertex="1">
          <mxGeometry x="730" y="380" width="200" height="60" as="geometry" />
        </mxCell>
        <mxCell id="02M5KZE2AxUHIFbQfSgq-11" value="GeneratePageID()" style="text;html=1;align=center;verticalAlign=middle;resizable=0;points=[];autosize=1;strokeColor=none;fillColor=none;" parent="02M5KZE2AxUHIFbQfSgq-9" vertex="1">
          <mxGeometry x="40" y="30" width="110" height="20" as="geometry" />
        </mxCell>
        <mxCell id="02M5KZE2AxUHIFbQfSgq-13" style="edgeStyle=orthogonalEdgeStyle;rounded=0;orthogonalLoop=1;jettySize=auto;html=1;entryX=0;entryY=0.75;entryDx=0;entryDy=0;" parent="1" source="4cVDEcXTtCitCNLEUzu5-69" target="02M5KZE2AxUHIFbQfSgq-9" edge="1">
          <mxGeometry relative="1" as="geometry" />
        </mxCell>
        <mxCell id="02M5KZE2AxUHIFbQfSgq-15" value="PageTableProducer" style="swimlane;fillColor=#d5e8d4;strokeColor=#82b366;" parent="1" vertex="1">
          <mxGeometry x="730" y="452.5" width="200" height="125" as="geometry" />
        </mxCell>
        <mxCell id="02M5KZE2AxUHIFbQfSgq-17" value="UpdatePageTable" style="text;html=1;align=center;verticalAlign=middle;resizable=0;points=[];autosize=1;strokeColor=none;fillColor=none;" parent="02M5KZE2AxUHIFbQfSgq-15" vertex="1">
          <mxGeometry x="40" y="65" width="110" height="20" as="geometry" />
        </mxCell>
        <mxCell id="02M5KZE2AxUHIFbQfSgq-16" value="ProcessPages" style="text;html=1;align=center;verticalAlign=middle;resizable=0;points=[];autosize=1;strokeColor=none;fillColor=none;" parent="02M5KZE2AxUHIFbQfSgq-15" vertex="1">
          <mxGeometry x="50" y="35" width="90" height="20" as="geometry" />
        </mxCell>
        <mxCell id="02M5KZE2AxUHIFbQfSgq-18" value="GetTargetPages" style="text;html=1;align=center;verticalAlign=middle;resizable=0;points=[];autosize=1;strokeColor=none;fillColor=none;" parent="02M5KZE2AxUHIFbQfSgq-15" vertex="1">
          <mxGeometry x="45" y="95" width="100" height="20" as="geometry" />
        </mxCell>
        <mxCell id="02M5KZE2AxUHIFbQfSgq-19" style="edgeStyle=orthogonalEdgeStyle;rounded=0;orthogonalLoop=1;jettySize=auto;html=1;entryX=0;entryY=0.5;entryDx=0;entryDy=0;" parent="1" source="4cVDEcXTtCitCNLEUzu5-70" target="02M5KZE2AxUHIFbQfSgq-15" edge="1">
          <mxGeometry relative="1" as="geometry" />
        </mxCell>
        <mxCell id="02M5KZE2AxUHIFbQfSgq-20" value="PhysicalMaterialCollector" style="swimlane;fillColor=#e1d5e7;strokeColor=#9673a6;" parent="1" vertex="1">
          <mxGeometry x="730" y="590" width="200" height="60" as="geometry" />
        </mxCell>
        <mxCell id="02M5KZE2AxUHIFbQfSgq-21" value="PageIDToPhysicalPagePassData" style="text;html=1;align=center;verticalAlign=middle;resizable=0;points=[];autosize=1;strokeColor=none;fillColor=none;" parent="02M5KZE2AxUHIFbQfSgq-20" vertex="1">
          <mxGeometry x="5" y="30" width="190" height="20" as="geometry" />
        </mxCell>
        <mxCell id="02M5KZE2AxUHIFbQfSgq-23" style="edgeStyle=orthogonalEdgeStyle;rounded=0;orthogonalLoop=1;jettySize=auto;html=1;entryX=0;entryY=0.75;entryDx=0;entryDy=0;" parent="1" source="02M5KZE2AxUHIFbQfSgq-7" target="02M5KZE2AxUHIFbQfSgq-20" edge="1">
          <mxGeometry relative="1" as="geometry" />
        </mxCell>
        <mxCell id="02M5KZE2AxUHIFbQfSgq-24" value="PhysicalTextureProducer" style="swimlane;fillColor=#fff2cc;strokeColor=#d6b656;" parent="1" vertex="1">
          <mxGeometry x="730" y="660" width="200" height="60" as="geometry" />
        </mxCell>
        <mxCell id="02M5KZE2AxUHIFbQfSgq-25" value="RenderToPhysicalTextures" style="text;html=1;align=center;verticalAlign=middle;resizable=0;points=[];autosize=1;strokeColor=none;fillColor=none;" parent="02M5KZE2AxUHIFbQfSgq-24" vertex="1">
          <mxGeometry x="20" y="30" width="160" height="20" as="geometry" />
        </mxCell>
        <mxCell id="02M5KZE2AxUHIFbQfSgq-26" style="edgeStyle=orthogonalEdgeStyle;rounded=0;orthogonalLoop=1;jettySize=auto;html=1;exitX=1;exitY=0.5;exitDx=0;exitDy=0;entryX=0;entryY=0.5;entryDx=0;entryDy=0;" parent="1" source="4cVDEcXTtCitCNLEUzu5-72" target="02M5KZE2AxUHIFbQfSgq-24" edge="1">
          <mxGeometry relative="1" as="geometry">
            <Array as="points">
              <mxPoint x="610" y="575" />
              <mxPoint x="610" y="690" />
            </Array>
          </mxGeometry>
        </mxCell>
      </root>
    </mxGraphModel>
  </diagram>
</mxfile>
